<svg width="37" height="36" xmlns="http://www.w3.org/2000/svg" xmlns:xlink="http://www.w3.org/1999/xlink" xmlns:svgjs="http://svgjs.com/svgjs" viewBox="854 1076 37 36"><svg width="37" height="36" xmlns="http://www.w3.org/2000/svg" xmlns:xlink="http://www.w3.org/1999/xlink" xmlns:svgjs="http://svgjs.com/svgjs" viewBox="0.5 0 36 36" fill="#21455e" x="854" y="1076"><svg xmlns="http://www.w3.org/2000/svg" xmlns:xlink="http://www.w3.org/1999/xlink" width="37" height="36" viewBox="0.324 0 35.995 35.995"><path paint-order="stroke fill markers" fill-rule="evenodd" d="M18.322 0c9.94 0 17.997 8.058 17.997 17.998 0 9.94-8.058 17.997-17.997 17.997-9.94 0-17.998-8.058-17.998-17.997C.324 8.058 8.382 0 18.322 0z"/></svg></svg><svg width="13" height="16" xmlns="http://www.w3.org/2000/svg" xmlns:xlink="http://www.w3.org/1999/xlink" xmlns:svgjs="http://svgjs.com/svgjs" fill="#fff" stroke-miterlimit="100" stroke="#21455e" stroke-width=".2" x="866" y="1086"><svg xmlns="http://www.w3.org/2000/svg" width="13" height="16" viewBox="0 0 12.557 15.454"><path paint-order="stroke fill markers" fill-rule="evenodd" d="M12.557 13.395h-.955V5.963H3.561v7.432h-.004a1.628 1.628 0 0 0-1.104-1.167V0H0v.906h1.575v11.322A1.641 1.641 0 0 0 .42 13.809c0 .907.715 1.645 1.594 1.645.713 0 1.319-.486 1.521-1.154h9.022v-.905zM4.438 6.869h1.714v2.793h2.859V6.87h1.714v6.487H4.438V6.87zm2.592 0h1.103v1.888H7.03V6.869zm-5.016 7.68a.73.73 0 0 1-.717-.74.73.73 0 0 1 .717-.74.73.73 0 0 1 .717.74.73.73 0 0 1-.717.74z"/></svg></svg></svg>