<svg width="37" height="36" xmlns="http://www.w3.org/2000/svg" xmlns:xlink="http://www.w3.org/1999/xlink" xmlns:svgjs="http://svgjs.com/svgjs" viewBox="854 608 37 36"><svg width="37" height="36" xmlns="http://www.w3.org/2000/svg" xmlns:xlink="http://www.w3.org/1999/xlink" xmlns:svgjs="http://svgjs.com/svgjs" viewBox="0.5 0 36 36" x="854" y="608"><svg xmlns="http://www.w3.org/2000/svg" xmlns:xlink="http://www.w3.org/1999/xlink" width="37" height="36" viewBox="0.324 0 35.995 35.995"><path paint-order="stroke fill markers" fill-rule="evenodd" d="M18.322 0c9.94 0 17.997 8.058 17.997 17.997 0 9.94-8.058 17.998-17.997 17.998-9.94 0-17.998-8.058-17.998-17.998C.324 8.057 8.382 0 18.322 0z"/></svg></svg><svg width="16" height="17" xmlns="http://www.w3.org/2000/svg" xmlns:xlink="http://www.w3.org/1999/xlink" xmlns:svgjs="http://svgjs.com/svgjs" viewBox="0.174 0 15.651 17" fill="#fff" x="864" y="617"><svg xmlns="http://www.w3.org/2000/svg" width="16" height="17" viewBox="0.855 0.888 14.677 15.942"><path paint-order="stroke fill markers" fill-rule="evenodd" d="M15.525 4.646a.418.418 0 0 0-.04-.178.39.39 0 0 0-.273-.216L8.358.928a.407.407 0 0 0-.353 0L1.083 4.283a.405.405 0 0 0-.228.35v8.435c0 .154.087.296.228.363l6.922 3.355c.003 0 .003 0 .006.003.01.003.02.007.03.013.004 0 .007.004.014.004l.03.01c.004 0 .007.003.01.003.01.004.024.004.034.007h.01l.044.003c.013 0 .03 0 .044-.003h.01c.01 0 .023-.003.033-.007.004 0 .007-.003.01-.003l.03-.01c.004 0 .007-.004.014-.004a.122.122 0 0 0 .03-.013c.004 0 .004 0 .007-.003l6.941-3.365a.407.407 0 0 0 .23-.363V4.656c-.007-.003-.007-.007-.007-.01zM8.18 1.739l6.002 2.91-2.21 1.074-6.003-2.91 2.21-1.074zm0 5.82L2.177 4.65l2.867-1.39 6.002 2.911L8.18 7.56zM1.662 5.3l6.114 2.964v7.513l-6.114-2.964V5.299zm6.921 10.477V8.263l2.87-1.393v1.965c0 .222.182.404.404.404a.405.405 0 0 0 .404-.404V6.476l2.456-1.19v7.512l-6.134 2.978z"/></svg></svg></svg>