<svg width="37" height="36" xmlns="http://www.w3.org/2000/svg" xmlns:xlink="http://www.w3.org/1999/xlink" xmlns:svgjs="http://svgjs.com/svgjs" viewBox="248 1451 37 36"><svg width="37" height="36" xmlns="http://www.w3.org/2000/svg" xmlns:xlink="http://www.w3.org/1999/xlink" xmlns:svgjs="http://svgjs.com/svgjs" viewBox="0.5 0 36 36" fill="#f27500" x="248" y="1451"><svg xmlns="http://www.w3.org/2000/svg" xmlns:xlink="http://www.w3.org/1999/xlink" width="37" height="36" viewBox="0.324 0 35.995 35.995"><path paint-order="stroke fill markers" fill-rule="evenodd" d="M18.322 0c9.94 0 17.997 8.058 17.997 17.998 0 9.94-8.057 17.997-17.997 17.997S.324 27.937.324 17.998C.324 8.058 8.382 0 18.322 0z"/></svg></svg><svg width="17" height="15" xmlns="http://www.w3.org/2000/svg" xmlns:xlink="http://www.w3.org/1999/xlink" xmlns:svgjs="http://svgjs.com/svgjs" viewBox="0 0.191 17 14.619" fill="#fff" stroke-miterlimit="100" stroke="#f27500" stroke-width=".1" x="258" y="1462"><svg xmlns="http://www.w3.org/2000/svg" xmlns:xlink="http://www.w3.org/1999/xlink" width="17" height="15" viewBox="0 0.001 16.471 14.164"><path paint-order="stroke fill markers" fill-rule="evenodd" d="M16.258 11.92L9.502.718A1.487 1.487 0 0 0 8.235 0c-.515 0-1 .274-1.267.716L.212 11.92a1.482 1.482 0 0 0 1.267 2.244h13.512c.533 0 1.027-.289 1.289-.752a1.482 1.482 0 0 0-.022-1.492zm-.912.965a.408.408 0 0 1-.355.207H1.48a.408.408 0 0 1-.349-.617L7.886 1.27a.41.41 0 0 1 .35-.197.41.41 0 0 1 .348.197l6.756 11.205a.408.408 0 0 1 .006.41z"/></svg></svg><svg width="3" height="3" xmlns="http://www.w3.org/2000/svg" xmlns:xlink="http://www.w3.org/1999/xlink" xmlns:svgjs="http://svgjs.com/svgjs" viewBox="0.01 0 2.98 3" fill="#fff" stroke-miterlimit="100" stroke="#f27500" stroke-width=".1" x="265" y="1472"><svg xmlns="http://www.w3.org/2000/svg" xmlns:xlink="http://www.w3.org/1999/xlink" width="3" height="3" viewBox="0.233 0.67 2.024 2.038"><path paint-order="stroke fill markers" fill-rule="evenodd" d="M1.252.67a1.01 1.01 0 0 0-1.02 1.019 1.02 1.02 0 0 0 1.02 1.018c.542 0 1.005-.476 1.005-1.018 0-.556-.463-1.02-1.005-1.02z"/></svg></svg><svg width="3" height="8" xmlns="http://www.w3.org/2000/svg" xmlns:xlink="http://www.w3.org/1999/xlink" xmlns:svgjs="http://svgjs.com/svgjs" viewBox="0.372 0 2.257 8" fill="#fff" stroke-miterlimit="100" stroke="#f27500" stroke-width=".1" x="265" y="1465"><svg xmlns="http://www.w3.org/2000/svg" width="3" height="8" viewBox="0.276 0.591 1.919 6.801"><path paint-order="stroke fill markers" fill-rule="evenodd" d="M1.242.59c-.543 0-.966.292-.966.808 0 1.574.185 3.836.185 5.41 0 .411.358.583.78.583.319 0 .768-.172.768-.582 0-1.574.186-3.837.186-5.411 0-.516-.437-.807-.953-.807z"/></svg></svg></svg>