<svg width="36" height="36" xmlns="http://www.w3.org/2000/svg" xmlns:xlink="http://www.w3.org/1999/xlink" xmlns:svgjs="http://svgjs.com/svgjs" viewBox="248 218 36 36"><svg width="36" height="36" xmlns="http://www.w3.org/2000/svg" xmlns:xlink="http://www.w3.org/1999/xlink" xmlns:svgjs="http://svgjs.com/svgjs" fill="#0ad688" x="248" y="218"><svg xmlns="http://www.w3.org/2000/svg" xmlns:xlink="http://www.w3.org/1999/xlink" width="36" height="36" viewBox="0 0 35.995 35.995"><path paint-order="stroke fill markers" fill-rule="evenodd" d="M17.998 0c9.94 0 17.997 8.058 17.997 17.997 0 9.94-8.058 17.998-17.997 17.998C8.058 35.995 0 27.937 0 17.997 0 8.057 8.058 0 17.998 0z"/></svg></svg><svg width="16" height="11" xmlns="http://www.w3.org/2000/svg" xmlns:xlink="http://www.w3.org/1999/xlink" xmlns:svgjs="http://svgjs.com/svgjs" viewBox="0.511 0 14.979 11" fill="#fff" x="258" y="231"><svg xmlns="http://www.w3.org/2000/svg" width="16" height="11" viewBox="0.999 0 14.943 10.974"><path paint-order="stroke fill markers" fill-rule="evenodd" d="M15.723.22a.747.747 0 0 0-1.056 0L5.716 9.17 2.275 5.73a.747.747 0 1 0-1.057 1.056l3.97 3.97a.747.747 0 0 0 1.056 0l9.48-9.48a.747.747 0 0 0 0-1.057z"/></svg></svg></svg>