<svg width="36" height="36" xmlns="http://www.w3.org/2000/svg" xmlns:xlink="http://www.w3.org/1999/xlink" xmlns:svgjs="http://svgjs.com/svgjs" viewBox="248 596 36 36"><svg width="36" height="36" xmlns="http://www.w3.org/2000/svg" xmlns:xlink="http://www.w3.org/1999/xlink" xmlns:svgjs="http://svgjs.com/svgjs" fill="#5e3b21" x="248" y="596"><svg xmlns="http://www.w3.org/2000/svg" xmlns:xlink="http://www.w3.org/1999/xlink" width="36" height="36" viewBox="0 0 35.995 35.995"><path paint-order="stroke fill markers" fill-rule="evenodd" d="M17.998 0c9.94 0 17.997 8.058 17.997 17.998 0 9.94-8.058 17.997-17.997 17.997C8.058 35.995 0 27.937 0 17.998 0 8.058 8.058 0 17.998 0z"/></svg></svg><svg width="17" height="13" xmlns="http://www.w3.org/2000/svg" xmlns:xlink="http://www.w3.org/1999/xlink" xmlns:svgjs="http://svgjs.com/svgjs" viewBox="0 0.172 17 12.655" fill="#fff" stroke-miterlimit="100" stroke="#fff" stroke-width=".3" x="258" y="608"><svg xmlns="http://www.w3.org/2000/svg" width="17" height="13" viewBox="0 0 16.945 12.614"><path paint-order="stroke fill markers" fill-rule="evenodd" d="M13.718 4.033H12.65l.322-3.758v-.02-.002s0 0 0 0a.253.253 0 0 0-.15-.232L12.822.02a.256.256 0 0 0-.017-.007l-.006-.002a.291.291 0 0 0-.014-.004l-.01-.002-.013-.002A.21.21 0 0 0 12.749 0h-.015L12.725 0h-.003s0 0 0 0H7.644a.25.25 0 0 0-.248.253c0 .139.111.252.248.252h4.81l-.495 5.777s0 0 0 0l-.124 1.458H3.21l.144-1.516h1.642a.25.25 0 0 0 .248-.253.25.25 0 0 0-.248-.253H3.403l.305-3.202h2.614a.25.25 0 0 0 .248-.252.25.25 0 0 0-.248-.253H3.756L3.899.505h2.753a.251.251 0 0 0 .249-.252A.25.25 0 0 0 6.652 0H3.674s0 0 0 0a.25.25 0 0 0-.243.2v.002c-.002.006-.002.013-.003.02l-.001.005v.001l-.17 1.783H.248A.25.25 0 0 0 0 2.264c0 .14.111.252.248.252H3.21l-.305 3.202H2.02a.25.25 0 0 0-.248.253c0 .14.11.253.248.253h.837L2.69 7.967s0 0 0 0l-.256 2.696v.012l-.001.014V10.716l.004.02v.005l.004.014.003.01v.003a.253.253 0 0 0 .061.1l.008.008c.018.016.037.03.058.04l.013.007.004.001a.25.25 0 0 0 .068.017s0 0 0 0l.025.001s0 0 0 0h1.105c.122.943.916 1.672 1.873 1.672.958 0 1.752-.73 1.873-1.672h3.982c.122.943.915 1.672 1.873 1.672s1.751-.73 1.873-1.672h1.105s0 0 0 0a.24.24 0 0 0 .025 0l.005-.002a.252.252 0 0 0 .019-.002l.008-.002.014-.004a.308.308 0 0 0 .01-.003l.012-.005a.276.276 0 0 0 .01-.004l.01-.006.01-.005a.469.469 0 0 0 .01-.006l.01-.007.01-.007.008-.007.01-.009.007-.007a.25.25 0 0 0 .01-.01l.005-.007a.335.335 0 0 0 .01-.014l.004-.005a.242.242 0 0 0 .011-.019v-.001a.227.227 0 0 0 .011-.022l.002-.006.006-.016.003-.01.003-.013.002-.012.002-.01c.01-.086.205-1.674.291-2.701v-.003a9.62 9.62 0 0 0 .042-.698c0-1.812-1.448-3.286-3.227-3.286zm-1.11.506h1.015l-.13 1.516h-1.015l.13-1.516zm-6.948 7.57c-.769 0-1.394-.637-1.394-1.42 0-.782.625-1.419 1.394-1.419.768 0 1.393.637 1.393 1.42 0 .782-.625 1.419-1.393 1.419zm7.727 0c-.768 0-1.394-.637-1.394-1.42 0-.782.626-1.419 1.394-1.419.768 0 1.393.637 1.393 1.42 0 .782-.625 1.419-1.393 1.419zm2.759-1.672h-.886c-.122-.943-.915-1.672-1.873-1.672s-1.751.73-1.873 1.672H7.533c-.122-.943-.916-1.672-1.873-1.672-.958 0-1.752.73-1.874 1.672h-.832l.209-2.191h8.9s0 0 0 0 0 0 0 0l.025-.001.005-.001a.35.35 0 0 0 .02-.003l.007-.002.015-.004.01-.003.012-.005a.225.225 0 0 0 .021-.01l.01-.006a.188.188 0 0 0 .01-.006l.01-.007.01-.007a.166.166 0 0 0 .017-.016l.007-.007a.259.259 0 0 0 .01-.01l.006-.008.007-.01a.151.151 0 0 0 .013-.02l.005-.01.006-.012.004-.01.005-.012.003-.01.003-.013.003-.012.002-.012.001-.012v-.002l.125-1.454h1.283c.76 0 1.103.4 1.466.826.3.35.635.741 1.203.837a95.437 95.437 0 0 1-.241 2.213zm.284-2.72c-.37-.076-.596-.34-.871-.662-.344-.402-.764-.893-1.568-.985l.128-1.501c1.316.198 2.33 1.356 2.33 2.75 0 .095-.008.233-.02.398z"/></svg></svg></svg>